<svg width="20" height="20" viewBox="0 0 20 20" fill="none" xmlns="http://www.w3.org/2000/svg">
  <path
    d="M14.1665 1.66652C15.2707 1.66982 16.3286 2.10989 17.1094 2.89064C17.8901 3.67138 18.3302 4.72935 18.3335 5.83348V14.1665C18.3302 15.2707 17.8901 16.3286 17.1094 17.1094C16.3286 17.8901 15.2707 18.3302 14.1665 18.3335H5.83348C4.72935 18.3302 3.67138 17.8901 2.89064 17.1094C2.10989 16.3286 1.66982 15.2707 1.66652 14.1665V5.83348C1.66982 4.72935 2.10989 3.67138 2.89064 2.89064C3.67138 2.10989 4.72935 1.66982 5.83348 1.66652H14.1665V1.66652ZM14.1665 0H5.83348C2.625 0 0 2.625 0 5.83348V14.1665C0 17.375 2.625 20 5.83348 20H14.1665C17.375 20 20 17.375 20 14.1665V5.83348C20 2.625 17.375 0 14.1665 0V0Z"
    fill="currentColor" />
  <path
    d="M15.4165 5.8352C15.1693 5.8352 14.9276 5.76189 14.7221 5.62454C14.5165 5.48719 14.3563 5.29197 14.2617 5.06356C14.1671 4.83515 14.1423 4.58382 14.1905 4.34134C14.2388 4.09887 14.3578 3.87614 14.5326 3.70132C14.7075 3.52651 14.9302 3.40746 15.1727 3.35922C15.4151 3.31099 15.6665 3.33575 15.8949 3.43036C16.1233 3.52497 16.3185 3.68518 16.4559 3.89074C16.5932 4.0963 16.6665 4.33798 16.6665 4.58521C16.6669 4.74946 16.6348 4.91216 16.5721 5.06398C16.5094 5.21579 16.4173 5.35373 16.3012 5.46988C16.185 5.58602 16.0471 5.67808 15.8953 5.74077C15.7435 5.80347 15.5808 5.83556 15.4165 5.8352V5.8352ZM10 6.66824C10.6593 6.66824 11.3038 6.86375 11.852 7.23003C12.4002 7.59632 12.8274 8.11694 13.0797 8.72605C13.332 9.33517 13.3981 10.0054 13.2694 10.6521C13.1408 11.2987 12.8233 11.8927 12.3571 12.3588C11.8909 12.825 11.297 13.1425 10.6503 13.2711C10.0037 13.3998 9.33345 13.3338 8.72433 13.0815C8.11522 12.8292 7.5946 12.4019 7.22831 11.8537C6.86203 11.3055 6.66652 10.661 6.66652 10.0017C6.66747 9.11792 7.01897 8.27058 7.64392 7.64564C8.26886 7.02069 9.1162 6.66919 10 6.66824V6.66824ZM10 5.00172C9.0111 5.00172 8.0444 5.29497 7.22215 5.84437C6.39991 6.39378 5.75904 7.17467 5.3806 8.0883C5.00217 9.00193 4.90315 10.0073 5.09608 10.9772C5.289 11.9471 5.76521 12.838 6.46447 13.5373C7.16373 14.2365 8.05465 14.7127 9.02455 14.9056C9.99446 15.0986 10.9998 14.9996 11.9134 14.6211C12.827 14.2427 13.6079 13.6018 14.1574 12.7796C14.7068 11.9573 15 10.9906 15 10.0017C15 8.67564 14.4732 7.40387 13.5355 6.46619C12.5979 5.52851 11.3261 5.00172 10 5.00172V5.00172Z"
    fill="currentColor" />
</svg>