<svg width="20" height="20" viewBox="0 0 20 20" fill="none" xmlns="http://www.w3.org/2000/svg">
  <path
    d="M20 3.89583C19.2498 4.22181 18.456 4.43658 17.6438 4.53333C18.4974 4.03349 19.1393 3.23941 19.4492 2.30001C18.6421 2.77192 17.7606 3.10303 16.8425 3.27917C16.4559 2.87398 15.9909 2.55163 15.4758 2.33173C14.9607 2.11183 14.4063 1.99897 13.8463 2.00001C11.5788 2.00001 9.74375 3.80833 9.74375 6.03749C9.74214 6.34756 9.77767 6.65671 9.84958 6.95832C8.22362 6.8821 6.63147 6.46732 5.17499 5.74052C3.71852 5.01372 2.42979 3.9909 1.39125 2.7375C1.02691 3.35172 0.834222 4.05252 0.833333 4.76666C0.833333 6.16666 1.56375 7.40416 2.66667 8.12915C2.01322 8.11365 1.37316 7.9407 0.800833 7.62499V7.67499C0.800833 9.63332 2.2175 11.2625 4.0925 11.6333C3.73991 11.7273 3.37657 11.7749 3.01167 11.775C2.75274 11.7754 2.4944 11.7503 2.24042 11.7C2.76167 13.3041 4.27875 14.4708 6.07583 14.5041C4.61557 15.6295 2.82276 16.2378 0.979167 16.2333C0.651924 16.2328 0.324986 16.2133 0 16.175C1.87549 17.3726 4.0556 18.006 6.28083 18C13.8375 18 17.9658 11.8458 17.9658 6.50833C17.9658 6.33333 17.9613 6.15833 17.9529 5.98749C18.7542 5.41752 19.4474 4.70921 20 3.89583V3.89583Z"
    fill="currentColor" />
</svg>