<svg width="20" height="20" viewBox="0 0 20 20" fill="none" xmlns="http://www.w3.org/2000/svg">
  <path
    d="M19.8715 6.31202C19.8715 4.55425 18.5784 3.14023 16.9805 3.14023C14.8162 3.03906 12.6089 3 10.3531 3H9.64989C7.39961 3 5.18839 3.03906 3.02406 3.14062C1.43011 3.14062 0.136974 4.56246 0.136974 6.32022C0.039305 7.71042 -0.00210647 9.10101 0.000237572 10.4916C-0.00366917 11.8822 0.0406073 13.2741 0.133067 14.6673C0.133067 16.425 1.4262 17.8508 3.02015 17.8508C5.29387 17.9562 7.6262 18.0031 9.99759 17.9992C12.3729 18.007 14.6987 17.9575 16.975 17.8508C18.5729 17.8508 19.866 16.425 19.866 14.6673C19.9598 13.2728 20.0028 11.8822 19.9989 10.4877C20.0077 9.0971 19.9653 7.70521 19.8715 6.31202ZM8.0872 14.3235V6.64795L13.752 10.4838L8.0872 14.3235Z"
    fill="currentColor" />
</svg>